<?xml version="1.0" encoding="UTF-8" standalone="no"?>
<!DOCTYPE svg PUBLIC "-//W3C//DTD SVG 1.1//EN"
 "http://www.w3.org/Graphics/SVG/1.1/DTD/svg11.dtd">
<!-- Generated by graphviz version 2.40.1 (20161225.0304)
 -->
<!-- Title: G Pages: 1 -->
<svg width="124pt" height="315pt"
 viewBox="0.00 0.00 124.00 315.00" xmlns="http://www.w3.org/2000/svg" xmlns:xlink="http://www.w3.org/1999/xlink">
<g id="graph0" class="graph" transform="scale(1 1) rotate(0) translate(4 311)">
<title>G</title>
<polygon fill="#ffffff" stroke="transparent" points="-4,4 -4,-311 120,-311 120,4 -4,4"/>
<g id="clust1" class="cluster">
<title>cluster_0</title>
<polygon fill="#d3d3d3" stroke="#d3d3d3" points="8,-8 8,-299 108,-299 108,-8 8,-8"/>
<text text-anchor="middle" x="58" y="-283.8" font-family="Times,serif" font-size="14.00" fill="#000000">job</text>
</g>
<!-- Task 0 -->
<g id="node1" class="node">
<title>Task 0</title>
<ellipse fill="#ffffff" stroke="#ffffff" cx="58" cy="-250" rx="41.6928" ry="18"/>
<text text-anchor="middle" x="58" y="-246.3" font-family="Times,serif" font-size="14.00" fill="#000000">Task 0</text>
</g>
<!-- Task 1 -->
<g id="node2" class="node">
<title>Task 1</title>
<ellipse fill="#ffffff" stroke="#ffffff" cx="58" cy="-178" rx="41.6928" ry="18"/>
<text text-anchor="middle" x="58" y="-174.3" font-family="Times,serif" font-size="14.00" fill="#000000">Task 1</text>
</g>
<!-- Task 0&#45;&gt;Task 1 -->
<g id="edge1" class="edge">
<title>Task 0&#45;&gt;Task 1</title>
<path fill="none" stroke="#000000" d="M58,-231.8314C58,-224.131 58,-214.9743 58,-206.4166"/>
<polygon fill="#000000" stroke="#000000" points="61.5001,-206.4132 58,-196.4133 54.5001,-206.4133 61.5001,-206.4132"/>
</g>
<!-- Task 2 -->
<g id="node3" class="node">
<title>Task 2</title>
<ellipse fill="#ffffff" stroke="#ffffff" cx="58" cy="-106" rx="41.6928" ry="18"/>
<text text-anchor="middle" x="58" y="-102.3" font-family="Times,serif" font-size="14.00" fill="#000000">Task 2</text>
</g>
<!-- Task 1&#45;&gt;Task 2 -->
<g id="edge2" class="edge">
<title>Task 1&#45;&gt;Task 2</title>
<path fill="none" stroke="#000000" d="M58,-159.8314C58,-152.131 58,-142.9743 58,-134.4166"/>
<polygon fill="#000000" stroke="#000000" points="61.5001,-134.4132 58,-124.4133 54.5001,-134.4133 61.5001,-134.4132"/>
</g>
<!-- Task 3 -->
<g id="node4" class="node">
<title>Task 3</title>
<ellipse fill="#ffffff" stroke="#ffffff" cx="58" cy="-34" rx="41.6928" ry="18"/>
<text text-anchor="middle" x="58" y="-30.3" font-family="Times,serif" font-size="14.00" fill="#000000">Task 3</text>
</g>
<!-- Task 2&#45;&gt;Task 3 -->
<g id="edge3" class="edge">
<title>Task 2&#45;&gt;Task 3</title>
<path fill="none" stroke="#000000" d="M58,-87.8314C58,-80.131 58,-70.9743 58,-62.4166"/>
<polygon fill="#000000" stroke="#000000" points="61.5001,-62.4132 58,-52.4133 54.5001,-62.4133 61.5001,-62.4132"/>
</g>
</g>
</svg>
